<svg width="22" height="22" viewBox="0 0 22 22" fill="none" xmlns="http://www.w3.org/2000/svg">
<path d="M8.86469 3.79221C8.9152 3.26086 9.162 2.76742 9.55687 2.4083C9.95174 2.04919 10.4663 1.85019 11.0001 1.85019C11.5338 1.85019 12.0484 2.04919 12.4433 2.4083C12.8381 2.76742 13.0849 3.26086 13.1354 3.79221C13.1658 4.13546 13.2784 4.46635 13.4637 4.75686C13.6491 5.04737 13.9016 5.28896 14.2001 5.46117C14.4986 5.63338 14.8342 5.73115 15.1784 5.7462C15.5227 5.76125 15.8655 5.69314 16.1779 5.54763C16.6629 5.32743 17.2125 5.29557 17.7197 5.45824C18.2269 5.62092 18.6554 5.9665 18.9219 6.42773C19.1884 6.88895 19.2737 7.43282 19.1613 7.95349C19.0489 8.47415 18.7467 8.93436 18.3137 9.24455C18.0317 9.44241 17.8015 9.70527 17.6426 10.0109C17.4837 10.3165 17.4007 10.6559 17.4007 11.0004C17.4007 11.3449 17.4837 11.6843 17.6426 11.9899C17.8015 12.2956 18.0317 12.5584 18.3137 12.7563C18.7467 13.0665 19.0489 13.5267 19.1613 14.0474C19.2737 14.568 19.1884 15.1119 18.9219 15.5731C18.6554 16.0343 18.2269 16.3799 17.7197 16.5426C17.2125 16.7053 16.6629 16.6734 16.1779 16.4532C15.8655 16.3077 15.5227 16.2396 15.1784 16.2546C14.8342 16.2697 14.4986 16.3675 14.2001 16.5397C13.9016 16.7119 13.6491 16.9535 13.4637 17.244C13.2784 17.5345 13.1658 17.8654 13.1354 18.2086C13.0849 18.74 12.8381 19.2334 12.4433 19.5925C12.0484 19.9517 11.5338 20.1507 11.0001 20.1507C10.4663 20.1507 9.95174 19.9517 9.55687 19.5925C9.162 19.2334 8.9152 18.74 8.86469 18.2086C8.83439 17.8653 8.72178 17.5342 8.5364 17.2436C8.35102 16.953 8.09833 16.7114 7.79974 16.5391C7.50114 16.3669 7.16544 16.2692 6.82106 16.2542C6.47667 16.2393 6.13376 16.3075 5.82136 16.4532C5.33634 16.6734 4.78674 16.7053 4.27952 16.5426C3.77231 16.3799 3.34377 16.0343 3.0773 15.5731C2.81084 15.1119 2.72551 14.568 2.83794 14.0474C2.95036 13.5267 3.25249 13.0665 3.68552 12.7563C3.96751 12.5584 4.19769 12.2956 4.35661 11.9899C4.51552 11.6843 4.59848 11.3449 4.59848 11.0004C4.59848 10.6559 4.51552 10.3165 4.35661 10.0109C4.19769 9.70527 3.96751 9.44241 3.68552 9.24455C3.2531 8.93421 2.9515 8.47418 2.83935 7.95386C2.7272 7.43355 2.8125 6.89013 3.07868 6.4292C3.34485 5.96828 3.77289 5.62278 4.27961 5.45985C4.78632 5.29693 5.33551 5.32821 5.82044 5.54763C6.1328 5.69314 6.47562 5.76125 6.81988 5.7462C7.16414 5.73115 7.49971 5.63338 7.79818 5.46117C8.09665 5.28896 8.34924 5.04737 8.53457 4.75686C8.71989 4.46635 8.8325 4.13546 8.86286 3.79221M13.7493 11.0007C13.7493 12.5195 12.5181 13.7507 10.9993 13.7507C9.48055 13.7507 8.24933 12.5195 8.24933 11.0007C8.24933 9.48196 9.48055 8.25074 10.9993 8.25074C12.5181 8.25074 13.7493 9.48196 13.7493 11.0007Z" stroke="#94A3B8" stroke-width="2" stroke-linecap="round"/>
</svg>
